<?xml version="1.0" encoding="utf-8"?>
<!-- Generator: Adobe Illustrator 19.0.0, SVG Export Plug-In . SVG Version: 6.00 Build 0)  -->
<svg version="1.1" id="Layer_1" xmlns="http://www.w3.org/2000/svg" xmlns:xlink="http://www.w3.org/1999/xlink" x="0px" y="0px"
	 viewBox="-49 349 512 96" style="enable-background:new -49 349 512 96;" xml:space="preserve">
<style type="text/css">
	.st0{fill:#DCDCE6;}
	.st1{fill:#FFCE00;}
</style>
<polygon class="st0" points="415,349 429.8,380.6 463,385.7 439,410.3 444.7,445 415,428.6 385.3,445 391,410.3 367,385.7 
	400.2,380.6 "/>
<polygon class="st1" points="-1,349 13.8,380.6 47,385.7 23,410.3 28.7,445 -1,428.6 -30.7,445 -25,410.3 -49,385.7 -15.8,380.6 "/>
<polygon class="st1" points="103,349 117.8,380.6 151,385.7 127,410.3 132.7,445 103,428.6 73.3,445 79,410.3 55,385.7 88.2,380.6 
	"/>
<polygon class="st1" points="207,349 221.8,380.6 255,385.7 231,410.3 236.7,445 207,428.6 177.3,445 183,410.3 159,385.7 
	192.2,380.6 "/>
<polygon class="st1" points="311,349 325.8,380.6 359,385.7 335,410.3 340.7,445 311,428.6 281.3,445 287,410.3 263,385.7 
	296.2,380.6 "/>
<polygon class="st1" points="415,349 400.2,380.6 367,385.7 391,410.3 385.3,445 415,428.6 "/>
</svg>
